<svg width="18" height="19" viewBox="0 0 18 19" fill="none" xmlns="http://www.w3.org/2000/svg">
<g clip-path="url(#clip0_872_700)">
<path d="M4.96348 14.4326C4.96348 13.5689 5.66361 12.8687 6.52731 12.8687C7.391 12.8687 8.09116 13.5689 8.09113 14.4326H4.96348ZM4.96348 14.4326C4.96348 15.2963 5.66364 15.9964 6.52731 15.9964M4.96348 14.4326L6.52731 15.9964M6.52731 15.9964C7.391 15.9964 8.09113 15.2962 8.09113 14.4326L6.52731 15.9964ZM7.19193 14.4326V14.4326C7.19195 14.7997 6.89438 15.0972 6.52731 15.0972C6.16024 15.0972 5.86268 14.7997 5.86268 14.4326C5.86268 14.0655 6.16024 13.768 6.52731 13.768C6.89437 13.768 7.19193 14.0655 7.19193 14.4326Z" fill="white" stroke="white" stroke-width="0.2625"/>
<path d="M13.2425 14.4326V14.4326C13.2425 14.7997 12.9449 15.0972 12.5778 15.0972C12.2108 15.0972 11.9132 14.7997 11.9132 14.4326C11.9132 14.0655 12.2108 13.768 12.5778 13.768C12.9449 13.768 13.2425 14.0655 13.2425 14.4326ZM12.5778 12.8687C11.7141 12.8687 11.014 13.5689 11.014 14.4326C11.014 15.2963 11.7142 15.9964 12.5778 15.9964C13.4415 15.9964 14.1417 15.2962 14.1417 14.4326C14.1417 13.5689 13.4415 12.8687 12.5778 12.8687Z" fill="white" stroke="white" stroke-width="0.2625"/>
<path d="M15.908 4.5604L15.9081 4.56035L15.9051 4.55707C15.8169 4.46076 15.6963 4.40048 15.5664 4.38771L15.5665 4.38725L15.5554 4.3871L5.28674 4.24514L5.02939 3.45877L5.02941 3.45877L5.02873 3.4568C4.80879 2.8191 4.21163 2.38859 3.53711 2.38145L3.53711 2.38145H3.53572H2.46923C2.22092 2.38145 2.01963 2.58273 2.01963 2.83105C2.01963 3.07936 2.22092 3.28065 2.46923 3.28065H3.53421C3.82462 3.28764 4.08022 3.47416 4.17547 3.74865L6.18096 9.79669L6.0418 10.1168L6.0417 10.1167L6.0398 10.1216C5.84701 10.6188 5.90491 11.1783 6.19536 11.6254L6.19563 11.6259C6.48403 12.0661 6.96923 12.3379 7.49532 12.3537L7.49532 12.3537H7.49926H13.6913C13.9396 12.3537 14.1409 12.1524 14.1409 11.9041C14.1409 11.6558 13.9396 11.4545 13.6913 11.4545H7.50095C7.27279 11.4483 7.06288 11.3281 6.94206 11.1343L6.94202 11.1342C6.82137 10.941 6.79598 10.7031 6.87292 10.4888L6.96757 10.2758L13.5935 9.58332L13.5942 9.58324C14.3854 9.49609 15.0363 8.92059 15.2197 8.14592L15.982 4.95383C16.029 4.81913 16.0011 4.66923 15.908 4.5604ZM14.3437 7.94147L14.3436 7.94147L14.3431 7.94392C14.2523 8.35156 13.9062 8.65225 13.4899 8.68526L13.4899 8.68523L13.4867 8.68555L6.97002 9.35914L5.58048 5.14573L14.9893 5.28387L14.3437 7.94147Z" fill="white" stroke="white" stroke-width="0.2625"/>
</g>
<defs>
<clipPath id="clip0_872_700">
<rect width="17.25" height="17.25" fill="white" transform="translate(0.749512 0.877563)"/>
</clipPath>
</defs>
</svg>
