<svg width="38" height="38" viewBox="0 0 38 38" fill="none" xmlns="http://www.w3.org/2000/svg">
<g clip-path="url(#clip0_911_180)">
<path d="M22.8791 14.6411H21.6694V16.4556H22.8791V14.6411Z" fill="#333333"/>
<path d="M13.2016 4.35889C11.4071 4.35889 9.91673 5.66957 9.62702 7.38308H7.15323H4.28629C2.19899 7.38308 0.5 9.08207 0.5 11.1694V16.1532C0.5 17.3206 1.4496 18.2702 2.61694 18.2702C2.94294 18.2702 3.24839 18.1897 3.52419 18.0579V27.0403C3.52419 28.2077 4.47379 29.1573 5.64113 29.1573C6.23387 29.1573 6.76855 28.9111 7.15323 28.5174C7.5379 28.9111 8.07258 29.1573 8.66532 29.1573C8.99133 29.1573 9.29677 29.0768 9.57258 28.945V31.2742C9.57258 32.4416 10.5222 33.3911 11.6895 33.3911C12.2823 33.3911 12.8169 33.145 13.2016 32.7512C13.5863 33.145 14.121 33.3911 14.7137 33.3911C15.881 33.3911 16.8306 32.4416 16.8306 31.2742H15.621C15.621 31.7744 15.2139 32.1815 14.7137 32.1815C14.2135 32.1815 13.8065 31.7744 13.8065 31.2742V23.1089H12.5968V31.2742C12.5968 31.7744 12.1897 32.1815 11.6895 32.1815C11.1893 32.1815 10.7823 31.7744 10.7823 31.2742V20.3871V20.0847V14.6411H9.57258V20.0847V20.3871C9.57258 20.8873 9.16552 21.2944 8.66532 21.2944C8.16512 21.2944 7.75806 20.8873 7.75806 20.3871V18.875V15.4032C7.75806 13.9825 8.91391 12.8266 10.3347 12.8266H16.0685V11.617H13.2016H10.7823V10.6855C11.4252 11.2625 12.2714 11.617 13.2016 11.617C15.203 11.617 16.8306 9.98933 16.8306 7.98792C16.8306 5.98651 15.203 4.35889 13.2016 4.35889ZM8.66532 22.5041C8.99133 22.5041 9.29677 22.4236 9.57258 22.2917V27.0403C9.57258 27.5405 9.16552 27.9476 8.66532 27.9476C8.16512 27.9476 7.75806 27.5405 7.75806 27.0403V22.2917C8.03387 22.4236 8.33931 22.5041 8.66532 22.5041ZM6.54839 15.4032V18.875V20.3871V27.0403C6.54839 27.5405 6.14133 27.9476 5.64113 27.9476C5.14093 27.9476 4.73387 27.5405 4.73387 27.0403V16.1532V15.8508V10.4073H3.52419V15.8508V16.1532C3.52419 16.6534 3.11714 17.0605 2.61694 17.0605C2.11673 17.0605 1.70968 16.6534 1.70968 16.1532V11.1694C1.70968 9.74861 2.86552 8.59276 4.28629 8.59276H9.62762C9.74435 9.28348 10.0558 9.90707 10.5046 10.4073H9.57258V11.6938C7.84879 12.0476 6.54839 13.5766 6.54839 15.4032ZM13.2016 10.4073C11.8673 10.4073 10.7823 9.32219 10.7823 7.98792C10.7823 6.65365 11.8673 5.56856 13.2016 5.56856C14.5359 5.56856 15.621 6.65365 15.621 7.98792C15.621 9.32219 14.5359 10.4073 13.2016 10.4073Z" fill="#333333"/>
<path d="M16.8305 14.6411H15.6208V16.4556H16.8305V14.6411Z" fill="#333333"/>
<path d="M10.7822 3.75403C10.7822 1.75262 9.15461 0.125 7.1532 0.125C5.15179 0.125 3.52417 1.75262 3.52417 3.75403C3.52417 5.75544 5.15179 7.38306 7.1532 7.38306C9.15461 7.38306 10.7822 5.75544 10.7822 3.75403ZM7.1532 6.17339C5.81893 6.17339 4.73385 5.08831 4.73385 3.75403C4.73385 2.41976 5.81893 1.33468 7.1532 1.33468C8.48748 1.33468 9.57256 2.41976 9.57256 3.75403C9.57256 5.08831 8.48748 6.17339 7.1532 6.17339Z" fill="#333333"/>
<path d="M34.9758 3.75403C34.9758 1.75262 33.3482 0.125 31.3468 0.125C29.3454 0.125 27.7178 1.75262 27.7178 3.75403C27.7178 5.75544 29.3454 7.38306 31.3468 7.38306C33.3482 7.38306 34.9758 5.75544 34.9758 3.75403ZM31.3468 6.17339C30.0125 6.17339 28.9275 5.08831 28.9275 3.75403C28.9275 2.41976 30.0125 1.33468 31.3468 1.33468C32.6811 1.33468 33.7662 2.41976 33.7662 3.75403C33.7662 5.08831 32.6811 6.17339 31.3468 6.17339Z" fill="#333333"/>
<path d="M34.2138 7.38308H31.3469H28.8731C28.5839 5.66957 27.0936 4.35889 25.2985 4.35889C23.2971 4.35889 21.6694 5.98651 21.6694 7.98792C21.6694 9.98933 23.2971 11.617 25.2985 11.617C26.2287 11.617 27.0749 11.2625 27.7178 10.6855V11.617H25.2985H22.4315V12.8266H28.1654C29.5862 12.8266 30.742 13.9825 30.742 15.4032V18.875V20.3871C30.742 20.8873 30.335 21.2944 29.8348 21.2944C29.3346 21.2944 28.9275 20.8873 28.9275 20.3871V20.0847V14.6411H27.7178V20.0847V20.3871V31.2742C27.7178 31.7744 27.3108 32.1815 26.8106 32.1815C26.3104 32.1815 25.9033 31.7744 25.9033 31.2742V23.1089H24.6936V31.2742C24.6936 31.7744 24.2866 32.1815 23.7864 32.1815C23.2862 32.1815 22.8791 31.7744 22.8791 31.2742H21.6694C21.6694 32.4416 22.619 33.3911 23.7864 33.3911C24.3791 33.3911 24.9138 33.145 25.2985 32.7512C25.6831 33.145 26.2178 33.3911 26.8106 33.3911C27.9779 33.3911 28.9275 32.4416 28.9275 31.2742V28.945C29.2033 29.0768 29.5087 29.1573 29.8348 29.1573C30.4275 29.1573 30.9622 28.9111 31.3469 28.5174C31.7315 28.9111 32.2662 29.1573 32.8589 29.1573C34.0263 29.1573 34.9759 28.2077 34.9759 27.0403V18.0579C35.2517 18.1897 35.5571 18.2702 35.8831 18.2702C37.0505 18.2702 38.0001 17.3206 38.0001 16.1532V11.1694C38.0001 9.08207 36.3011 7.38308 34.2138 7.38308ZM25.2985 10.4073C23.9642 10.4073 22.8791 9.32219 22.8791 7.98792C22.8791 6.65365 23.9642 5.56856 25.2985 5.56856C26.6327 5.56856 27.7178 6.65365 27.7178 7.98792C27.7178 9.32219 26.6327 10.4073 25.2985 10.4073ZM29.8348 27.9476C29.3346 27.9476 28.9275 27.5405 28.9275 27.0403V22.2917C29.2033 22.4236 29.5087 22.5041 29.8348 22.5041C30.1608 22.5041 30.4662 22.4236 30.742 22.2917V27.0403C30.742 27.5405 30.335 27.9476 29.8348 27.9476ZM36.7904 16.1532C36.7904 16.6534 36.3833 17.0605 35.8831 17.0605C35.3829 17.0605 34.9759 16.6534 34.9759 16.1532V15.8508V10.4073H33.7662V15.8508V16.1532V27.0403C33.7662 27.5405 33.3592 27.9476 32.8589 27.9476C32.3587 27.9476 31.9517 27.5405 31.9517 27.0403V20.3871V18.875V15.4032C31.9517 13.5766 30.6513 12.0476 28.9275 11.6944V10.4073H27.996C28.4448 9.90707 28.7563 9.28348 28.8731 8.59276H34.2144C35.6352 8.59276 36.791 9.74861 36.791 11.1694V16.1532H36.7904Z" fill="#333333"/>
<path d="M22.8789 12.2217C22.8789 10.2203 21.2513 8.59271 19.2499 8.59271C17.2485 8.59271 15.6208 10.2203 15.6208 12.2217C15.6208 14.2232 17.2485 15.8508 19.2499 15.8508C21.2513 15.8508 22.8789 14.2232 22.8789 12.2217Z" fill="#F9BA48"/>
<path d="M22.1168 15.8508H19.2499H16.383C14.2957 15.8508 12.5967 17.5498 12.5967 19.6371V24.6209C12.5967 25.7883 13.5463 26.7379 14.7136 26.7379C15.0396 26.7379 15.3451 26.6574 15.6209 26.5256V35.508C15.6209 36.6754 16.5705 37.625 17.7378 37.625C18.3306 37.625 18.8652 37.3788 19.2499 36.985C19.6346 37.3788 20.1693 37.625 20.762 37.625C21.9293 37.625 22.8789 36.6754 22.8789 35.508V26.5256C23.1547 26.6574 23.4602 26.7379 23.7862 26.7379C24.9535 26.7379 25.9031 25.7883 25.9031 24.6209V19.6371C25.9031 17.5498 24.2041 15.8508 22.1168 15.8508Z" fill="#F9BA48"/>
</g>
<defs>
<clipPath id="clip0_911_180">
<rect width="37.5" height="37.5" fill="white" transform="translate(0.5 0.125)"/>
</clipPath>
</defs>
</svg>
