<svg width="38" height="39" viewBox="0 0 38 39" fill="none" xmlns="http://www.w3.org/2000/svg">
<g clip-path="url(#clip0_911_613)">
<path d="M16.8582 20.8037H16.2609C15.9312 20.8037 15.6636 20.5361 15.6636 20.2064V19.0118C15.6636 18.6821 15.9312 18.4145 16.2609 18.4145H20.4419V16.0253C20.4419 15.7332 20.5506 15.4692 20.725 15.2614L13.8717 4.78003L5.17924 18.0746C3.83234 20.1347 3.12036 22.5239 3.12036 24.9847C3.12036 30.9129 7.94352 35.7361 13.8717 35.7361C14.8877 35.7361 15.8905 35.5891 16.8582 35.3102V20.8037Z" fill="#F9BA48"/>
<path d="M36.5704 17.817H32.9866V16.0251C32.9866 15.0371 32.1827 14.2332 31.1947 14.2332H23.0918L13.8732 0.625L3.51547 15.9152C1.69491 18.6024 0.732666 21.7388 0.732666 24.9845C0.732666 32.2303 6.62737 38.125 13.8732 38.125C15.0253 38.125 16.1638 37.9685 17.2664 37.6746C17.6582 37.9554 18.1343 38.125 18.6515 38.125H34.1812C35.4988 38.125 36.5704 37.0535 36.5704 35.7358V21.4007C37.2292 21.4007 37.765 20.865 37.765 20.2061V19.0115C37.765 18.3527 37.2292 17.817 36.5704 17.817ZM31.792 16.0251V17.817H21.0407V16.0251C21.0407 15.696 21.3089 15.4278 21.638 15.4278H31.1947C31.5238 15.4278 31.792 15.696 31.792 16.0251ZM1.92726 24.9845C1.92726 21.9783 2.81842 19.0737 4.50459 16.5847L13.8732 2.75496L21.6488 14.2332H21.638C20.6501 14.2332 19.8461 15.0371 19.8461 16.0251V17.817H16.2623C15.6035 17.817 15.0678 18.3527 15.0678 19.0115V20.2061C15.0678 20.865 15.6035 21.4007 16.2623 21.4007V35.7358C16.2623 36.0602 16.3286 36.369 16.4463 36.6515C15.6053 36.836 14.7428 36.9304 13.8732 36.9304C7.28619 36.9304 1.92726 31.5721 1.92726 24.9845ZM31.792 33.3466V21.4007H32.9866V33.3466H31.792ZM30.5974 33.3466H29.4028V21.4007H30.5974V33.3466ZM28.2083 33.3466H27.0137V21.4007H28.2083V33.3466ZM25.8191 33.3466H24.6245V21.4007H25.8191V33.3466ZM23.4299 33.3466H22.2353V21.4007H23.4299V33.3466ZM21.0407 33.3466H19.8461V21.4007H21.0407V33.3466ZM18.6515 33.3466H17.4569V21.4007H18.6515V33.3466ZM34.1812 36.9304H18.6515C17.9927 36.9304 17.4569 36.3946 17.4569 35.7358V34.5412H35.3758V35.7358C35.3758 36.3946 34.84 36.9304 34.1812 36.9304ZM35.3758 33.3466H34.1812V21.4007H35.3758V33.3466ZM16.2623 20.2061V19.0115H36.5704L36.571 20.2061H16.2623Z" fill="#333333"/>
<path d="M13.8731 21.4024C13.8731 19.426 12.2658 17.8187 10.2893 17.8187C8.31289 17.8187 6.70557 19.426 6.70557 21.4024C6.70557 23.3789 8.31289 24.9862 10.2893 24.9862C12.2658 24.9862 13.8731 23.3789 13.8731 21.4024ZM7.90016 21.4024C7.90016 20.0848 8.97171 19.0133 10.2893 19.0133C11.607 19.0133 12.6785 20.0848 12.6785 21.4024C12.6785 22.7201 11.607 23.7916 10.2893 23.7916C8.97171 23.7916 7.90016 22.7201 7.90016 21.4024Z" fill="#333333"/>
<path d="M13.8738 17.2193C15.1914 17.2193 16.263 16.1477 16.263 14.8301C16.263 13.5125 15.1914 12.4409 13.8738 12.4409C12.5562 12.4409 11.4846 13.5125 11.4846 14.8301C11.4846 16.1477 12.5562 17.2193 13.8738 17.2193ZM13.8738 13.6355C14.5326 13.6355 15.0684 14.1713 15.0684 14.8301C15.0684 15.4889 14.5326 16.0247 13.8738 16.0247C13.215 16.0247 12.6792 15.4889 12.6792 14.8301C12.6792 14.1713 13.215 13.6355 13.8738 13.6355Z" fill="#333333"/>
<path d="M12.6799 26.1793C11.3623 26.1793 10.2908 27.2508 10.2908 28.5684C10.2908 29.8861 11.3623 30.9576 12.6799 30.9576C13.9976 30.9576 15.0691 29.8861 15.0691 28.5684C15.0691 27.2508 13.9976 26.1793 12.6799 26.1793ZM12.6799 29.763C12.0211 29.763 11.4854 29.2273 11.4854 28.5684C11.4854 27.9096 12.0211 27.3738 12.6799 27.3738C13.3388 27.3738 13.8745 27.9096 13.8745 28.5684C13.8745 29.2273 13.3388 29.763 12.6799 29.763Z" fill="#333333"/>
</g>
<defs>
<clipPath id="clip0_911_613">
<rect width="37.5" height="37.5" fill="white" transform="translate(0.5 0.625)"/>
</clipPath>
</defs>
</svg>
