<svg width="20" height="21" viewBox="0 0 20 21" fill="none" xmlns="http://www.w3.org/2000/svg">
<g clip-path="url(#clip0_872_688)">
<path d="M14.9339 12.3214C14.1261 11.5136 13.1646 10.9156 12.1155 10.5536C13.2391 9.7797 13.9773 8.48457 13.9773 7.02011C13.9773 4.65582 12.0538 2.7323 9.68946 2.7323C7.32517 2.7323 5.40165 4.65582 5.40165 7.02011C5.40165 8.48457 6.13982 9.7797 7.26343 10.5536C6.21436 10.9156 5.25285 11.5136 4.44503 12.3214C3.04419 13.7222 2.27271 15.5847 2.27271 17.5658H3.43157C3.43157 14.1152 6.23884 11.3079 9.68946 11.3079C13.1401 11.3079 15.9474 14.1152 15.9474 17.5658H17.1062C17.1062 15.5847 16.3347 13.7222 14.9339 12.3214ZM9.68946 10.1491C7.96417 10.1491 6.56052 8.74544 6.56052 7.02011C6.56052 5.29479 7.96417 3.89117 9.68946 3.89117C11.4148 3.89117 12.8184 5.29479 12.8184 7.02011C12.8184 8.74544 11.4148 10.1491 9.68946 10.1491Z" fill="white"/>
</g>
<defs>
<clipPath id="clip0_872_688">
<rect width="19.4688" height="19.4688" fill="white" transform="translate(0.129395 0.783813)"/>
</clipPath>
</defs>
</svg>
