<svg width="10" height="12" viewBox="0 0 10 12" fill="none" xmlns="http://www.w3.org/2000/svg">
<path d="M4.84615 0.0185547C2.17398 0.0185547 0 1.78788 0 3.96267C0 4.69746 0.250089 5.41454 0.723396 6.03666L4.5703 11.082C4.64399 11.1786 4.77381 11.2374 4.91343 11.2374C4.91451 11.2374 4.91556 11.2374 4.91664 11.2374C5.05747 11.2365 5.18756 11.1759 5.25991 11.0776L9.00876 5.98337C9.45595 5.3744 9.69231 4.67565 9.69231 3.96267C9.69231 1.78788 7.51832 0.0185547 4.84615 0.0185547ZM8.31562 5.64588L4.90732 10.2773L1.40988 5.69032C1.01592 5.1725 0.802308 4.5751 0.802308 3.96267C0.802308 2.15035 2.61935 0.671524 4.84615 0.671524C7.07296 0.671524 8.88731 2.15035 8.88731 3.96267C8.88731 4.55694 8.68778 5.13906 8.31562 5.64588Z" fill="white"/>
<path d="M4.84642 1.9906C3.51033 1.9906 2.42334 2.87527 2.42334 3.96266C2.42334 5.0431 3.49265 5.93471 4.84642 5.93471C6.21689 5.93471 7.2695 5.03123 7.2695 3.96266C7.2695 2.87527 6.18251 1.9906 4.84642 1.9906ZM4.84642 5.28174C3.95104 5.28174 3.22565 4.6894 3.22565 3.96266C3.22565 3.23773 3.9557 2.64357 4.84642 2.64357C5.73714 2.64357 6.4645 3.23773 6.4645 3.96266C6.4645 4.6788 5.75599 5.28174 4.84642 5.28174Z" fill="white"/>
</svg>
