<svg width="17" height="18" viewBox="0 0 17 18" fill="none" xmlns="http://www.w3.org/2000/svg">
<g clip-path="url(#clip0_0_1305)">
<path d="M10.2168 15.8742C10.0766 15.9091 9.9337 15.9401 9.79184 15.9663C9.42099 16.0352 9.17582 16.3919 9.24442 16.7631C9.27829 16.9457 9.382 17.0978 9.52281 17.1971C9.66792 17.2992 9.85261 17.3453 10.0408 17.3103C10.2098 17.279 10.38 17.2421 10.5471 17.2004C10.9133 17.1092 11.1364 16.7383 11.045 16.3722C10.9539 16.0059 10.5832 15.783 10.2168 15.8742Z" fill="#867777"/>
<path d="M15.2708 6.71419C15.3187 6.85847 15.4101 6.97625 15.5256 7.05763C15.6967 7.17819 15.9207 7.21875 16.1344 7.14807C16.4928 7.02909 16.6869 6.64268 16.5684 6.28452C16.5144 6.12124 16.4545 5.95745 16.3906 5.79797C16.2504 5.44752 15.8529 5.2769 15.5023 5.41708C15.152 5.55719 14.9813 5.95482 15.1216 6.30538C15.1752 6.43942 15.2255 6.57701 15.2708 6.71419Z" fill="#867777"/>
<path d="M12.4377 14.8998C12.3171 14.9794 12.1927 15.0565 12.0674 15.1286C11.7403 15.3173 11.6283 15.7353 11.8169 16.0622C11.8681 16.1511 11.9363 16.2238 12.0148 16.2793C12.2256 16.4277 12.512 16.4499 12.7503 16.3125C12.8993 16.2266 13.0475 16.1352 13.1911 16.0402C13.5059 15.8323 13.5925 15.4082 13.3845 15.0933C13.1764 14.7783 12.7526 14.6917 12.4377 14.8998Z" fill="#867777"/>
<path d="M16.9932 8.62254C16.9784 8.24534 16.6607 7.95175 16.2833 7.96647C15.9065 7.98135 15.6127 8.29916 15.6275 8.67622C15.6332 8.82038 15.6346 8.9667 15.6313 9.11072C15.626 9.34727 15.7417 9.55812 15.9215 9.68485C16.0286 9.76028 16.1586 9.80592 16.2995 9.80914C16.6767 9.81751 16.9893 9.51833 16.9977 9.14094C17.0015 8.96886 17 8.79451 16.9932 8.62254Z" fill="#867777"/>
<path d="M15.1591 13.1025C14.8567 12.8756 14.4287 12.9372 14.2022 13.2391C14.1154 13.3547 14.0241 13.4689 13.9305 13.5789C13.686 13.8661 13.7206 14.2976 14.0078 14.5422C14.0242 14.5561 14.0407 14.5689 14.0579 14.5809C14.3435 14.7822 14.7403 14.7359 14.9712 14.465C15.0829 14.3338 15.1918 14.1974 15.2955 14.0593C15.5221 13.7573 15.4608 13.3291 15.1591 13.1025Z" fill="#867777"/>
<path d="M16.164 10.6308C15.8039 10.5179 15.4204 10.7184 15.3075 11.0785C15.2643 11.2161 15.2165 11.3544 15.1648 11.4898C15.0513 11.7878 15.16 12.1158 15.4093 12.2915C15.455 12.3236 15.5053 12.3508 15.5601 12.3715C15.9127 12.5061 16.3075 12.3292 16.4419 11.9764C16.5033 11.8154 16.5602 11.651 16.6117 11.4874C16.7244 11.1272 16.5241 10.7438 16.164 10.6308Z" fill="#867777"/>
<path d="M7.2353 15.9732C6.6243 15.8635 6.03818 15.6766 5.48239 15.4161C5.47581 15.4127 5.46993 15.4087 5.46302 15.4056C5.33205 15.344 5.2013 15.2779 5.07456 15.2089C5.07412 15.2084 5.07332 15.2081 5.07263 15.2078C4.8401 15.0797 4.61317 14.9381 4.3927 14.7829C1.1779 12.5183 0.404935 8.06041 2.66968 4.84564C3.16214 4.14686 3.75809 3.56388 4.42248 3.10183C4.43067 3.09613 4.43885 3.09046 4.44697 3.08473C6.78819 1.47155 9.96722 1.36284 12.4532 3.02052L11.9193 3.79199C11.7709 4.00672 11.8622 4.1632 12.122 4.13981L14.4413 3.93217C14.7015 3.90878 14.8571 3.68371 14.7871 3.43244L14.1643 1.18845C14.0946 0.936886 13.9161 0.906774 13.7675 1.12147L13.2323 1.89476C11.4079 0.670083 9.21976 0.203094 7.04787 0.579711C6.82912 0.61757 6.61344 0.663907 6.40072 0.717845C6.39908 0.718137 6.39776 0.71832 6.39645 0.718612C6.38823 0.720622 6.37989 0.72329 6.37189 0.725519C4.49904 1.20647 2.865 2.29879 1.69901 3.85729C1.68918 3.86895 1.67906 3.88035 1.66978 3.89303C1.631 3.94525 1.59252 3.99868 1.55485 4.0521C1.49324 4.13966 1.4325 4.22941 1.3744 4.31916C1.36712 4.32998 1.36157 4.34098 1.35521 4.35191C0.393022 5.84291 -0.0710791 7.56667 0.00851242 9.32156C0.00869514 9.32733 0.00836625 9.33314 0.00851242 9.33906C0.0162231 9.51049 0.0298172 9.68429 0.0482717 9.85538C0.0492583 9.86642 0.0517067 9.87687 0.0535705 9.88791C0.0726461 10.06 0.0965821 10.2324 0.126584 10.4048C0.431503 12.1639 1.26133 13.7469 2.50479 14.9786C2.50768 14.9815 2.51068 14.9846 2.5136 14.9876C2.51462 14.9887 2.51576 14.9893 2.51674 14.9904C2.85082 15.3199 3.21421 15.6247 3.60548 15.9003C4.62943 16.6218 5.76962 17.0987 6.99412 17.3184C7.36565 17.3852 7.72056 17.1379 7.78722 16.7665C7.85384 16.3949 7.60673 16.0397 7.2353 15.9732Z" fill="#867777"/>
<path d="M8.0805 3.43042C7.77489 3.43042 7.52734 3.67818 7.52734 3.98336V9.49217L12.5656 12.0967C12.6467 12.1386 12.7335 12.1584 12.819 12.1584C13.0191 12.1584 13.2123 12.0494 13.3106 11.8593C13.4507 11.5879 13.3447 11.2545 13.0733 11.1144L8.63304 8.81882V3.98336C8.633 3.67818 8.38575 3.43042 8.0805 3.43042Z" fill="#867777"/>
</g>
<defs>
<clipPath id="clip0_0_1305">
<rect width="17" height="17" fill="white" transform="translate(-0.000488281 0.390747)"/>
</clipPath>
</defs>
</svg>
