<svg width="28" height="29" viewBox="0 0 28 29" fill="none" xmlns="http://www.w3.org/2000/svg">
<path d="M8.35698 16.4098C9.05912 17.3642 9.86563 18.2082 10.9078 18.8052C12.0879 19.4819 13.3586 19.6862 14.6984 19.6239C15.3247 19.5938 15.5129 19.43 15.5417 18.8041C15.5611 18.3753 15.6105 17.9476 15.8209 17.5625C16.0277 17.1844 16.3415 17.113 16.7033 17.3482C16.8836 17.4669 17.0354 17.6156 17.1789 17.7747C17.5316 18.1609 17.8731 18.5608 18.2384 18.9344C18.6979 19.4037 19.2426 19.6802 19.9262 19.6238L22.5747 19.625C23.0009 19.5961 23.2227 19.0717 22.9779 18.593C22.8056 18.2589 22.5794 17.9615 22.3402 17.6731C21.799 17.0206 21.1613 16.4649 20.5583 15.8747C20.0147 15.3423 19.9803 15.0333 20.4168 14.4189C20.8948 13.7478 21.4072 13.1036 21.8887 12.436C22.3379 11.8124 22.7988 11.1897 23.0341 10.444C23.1847 9.96798 23.0515 9.75812 22.5667 9.67402C22.4829 9.66018 22.3955 9.66018 22.3105 9.66018L19.4288 9.65664C19.0737 9.65103 18.8784 9.80655 18.7531 10.1223C18.5831 10.5491 18.4084 10.9755 18.206 11.386C17.7489 12.3198 17.2374 13.2222 16.5206 13.9854C16.362 14.1536 16.1861 14.367 15.922 14.2794C15.5923 14.1584 15.4946 13.6121 15.5002 13.4277L15.4978 10.0903C15.4337 9.61424 15.3278 9.40086 14.8558 9.30847H11.8625C11.4639 9.30847 11.2627 9.46428 11.0489 9.71428C10.9271 9.85978 10.8892 9.95303 11.1421 10.0015C11.6383 10.0959 11.9199 10.4187 11.9934 10.9181C12.1119 11.7169 12.1037 12.5191 12.0349 13.3203C12.0155 13.5543 11.9752 13.7872 11.8831 14.0062C11.7383 14.3509 11.5039 14.4202 11.1972 14.208C10.9204 14.0168 10.7251 13.7471 10.533 13.4761C9.815 12.4579 9.24288 11.3607 8.77519 10.2077C8.64073 9.87455 8.4075 9.67298 8.05597 9.66707C7.19178 9.65323 6.32672 9.65114 5.46132 9.66823C4.94213 9.67738 4.78684 9.9312 4.99952 10.4048C5.94055 12.5063 6.98862 14.5491 8.35698 16.4098Z" fill="#333333"/>
<path d="M0 0.429565V28.522H28V0.429565H0ZM26.268 26.7843H1.73196V2.16724H26.268V26.7843Z" fill="#333333"/>
</svg>
