<svg width="28" height="55" viewBox="0 0 28 55" fill="none" xmlns="http://www.w3.org/2000/svg">
<path d="M18.6031 43.3676L27.9032 38.3376L18.6031 32.8563L9.30078 38.3376V49.298L18.6031 54.7792V43.3676Z" fill="#F7EEEC"/>
<path d="M27.9032 16.4408V5.48047L18.6031 9.87125L9.30078 5.48047V16.4408L18.6031 21.9221L27.9032 16.4408Z" fill="#F7EEEC"/>
<path d="M18.6024 32.8713V21.9088L9.30011 16.4297L0 21.9088L9.30011 26.6114V38.3504L18.6024 32.8713Z" fill="#3BAEAB"/>
<path d="M27.9032 5.48128L18.6031 9.87206L9.30078 5.48128L18.6031 0L27.9032 5.48128Z" fill="#3BAEAB"/>
<path d="M27.9017 38.3398L18.6016 43.3699V54.7815L27.9017 49.3002V38.3398Z" fill="#3BAEAB"/>
<path d="M9.30011 38.3483V26.6093L0 21.9066V32.8692L9.30011 38.3483Z" fill="#F7EEEC"/>
</svg>
