<svg width="28" height="29" viewBox="0 0 28 29" fill="none" xmlns="http://www.w3.org/2000/svg">
<path d="M0 0.429565V28.522H28V0.429565H0ZM26.268 26.7843H1.73196V2.16724H26.268V26.7843Z" fill="#333333"/>
<path d="M18.5049 5.35522H9.49532C6.96601 5.35522 4.90845 7.41958 4.90845 9.95724V18.9965C4.90845 21.5344 6.96601 23.5985 9.49532 23.5985H18.5049C21.0344 23.5985 23.0917 21.5344 23.0917 18.9965V9.95724C23.0917 7.41958 21.0344 5.35522 18.5049 5.35522ZM21.1131 18.9966C21.1131 20.4395 19.943 21.6134 18.5049 21.6134H9.49532C8.05744 21.6134 6.88735 20.4395 6.88735 18.9966V9.95724C6.88735 8.51461 8.05744 7.34066 9.49532 7.34066H18.5049C19.943 7.34066 21.1131 8.51453 21.1131 9.95724V18.9966Z" fill="#333333"/>
<path d="M18.8332 10.7505C18.2219 10.7505 17.7249 10.2518 17.7249 9.63885C17.7249 9.02581 18.2219 8.5271 18.8332 8.5271C19.4442 8.5271 19.9413 9.02581 19.9413 9.63885C19.9413 10.2518 19.4442 10.7505 18.8332 10.7505Z" fill="#333333"/>
<path d="M13.9996 9.7771C11.4176 9.7771 9.31665 11.885 9.31665 14.4755C9.31665 17.0663 11.4176 19.1742 13.9996 19.1742C16.5819 19.1742 18.6828 17.0663 18.6828 14.4755C18.6828 11.885 16.5819 9.7771 13.9996 9.7771ZM13.9996 17.1892C12.509 17.1892 11.2952 15.9716 11.2952 14.4756C11.2952 12.9801 12.509 11.7628 13.9996 11.7628C15.4907 11.7628 16.7037 12.9801 16.7037 14.4756C16.7037 15.9715 15.4907 17.1892 13.9996 17.1892Z" fill="#333333"/>
</svg>
