<svg width="15" height="8" viewBox="0 0 15 8" fill="none" xmlns="http://www.w3.org/2000/svg">
<path d="M0 4C0.458114 4.49351 0.731014 4.92499 2.35675 6.12425C4.06868 7.33158 5.84718 7.96972 7.49999 7.96972C9.15279 7.96972 10.9313 7.33158 12.6432 6.12425C14.2762 4.91608 14.533 4.50467 15 4C14.5419 3.50649 14.269 3.07501 12.6432 1.87575C10.9313 0.668454 9.15282 0.0302811 7.49999 0.0302811C5.84715 0.0302811 4.06865 0.668424 2.35672 1.87575C0.731014 3.07501 0.458114 3.50652 0 4ZM4.40917 4C4.40917 2.29572 5.7957 0.909186 7.49999 0.909186C9.20427 0.909186 10.5908 2.29575 10.5908 4C10.5908 5.70425 9.20427 7.09081 7.49999 7.09081C5.7957 7.09081 4.40917 5.70428 4.40917 4ZM12.1192 5.41835C11.7416 5.68369 11.2915 5.96652 10.7875 6.22278C11.218 5.58815 11.4697 4.82295 11.4697 4C11.4697 3.17614 11.2174 2.41018 10.786 1.77514C11.2093 1.99027 11.6548 2.25537 12.1192 2.58168C12.8938 3.12596 13.4849 3.67621 13.8084 4C13.4849 4.32373 12.8939 4.87401 12.1192 5.41835ZM1.19168 4C1.51517 3.67621 2.10618 3.12596 2.88079 2.58168C3.25848 2.31631 3.70863 2.03333 4.21268 1.77699C3.7821 2.41167 3.53027 3.17696 3.53027 4C3.53027 4.82388 3.78263 5.58988 4.214 6.22492C3.79074 6.00979 3.34523 5.74463 2.88079 5.41832C2.10618 4.87407 1.51514 4.32379 1.19168 4Z" fill="#757575"/>
</svg>
