<svg width="19" height="19" viewBox="0 0 19 19" fill="none" xmlns="http://www.w3.org/2000/svg">
<path d="M8.50079 1.22632C8.88783 0.363952 10.1122 0.363952 10.4992 1.22632L12.4334 5.53574C12.5926 5.89059 12.9281 6.13435 13.3148 6.17617L18.011 6.68397C18.9508 6.78558 19.3291 7.95 18.6286 8.58458L15.1278 11.7558C14.8395 12.0169 14.7113 12.4113 14.7911 12.792L15.7593 17.4152C15.9531 18.3404 14.9626 19.0601 14.1426 18.5899L10.0448 16.2404C9.70736 16.0469 9.29264 16.0469 8.95522 16.2404L4.85745 18.5899C4.03743 19.0601 3.04693 18.3404 3.24069 17.4152L4.20894 12.792C4.28867 12.4113 4.16052 12.0169 3.87225 11.7558L0.371428 8.58458C-0.329125 7.95 0.0492158 6.78558 0.988976 6.68397L5.68517 6.17617C6.07186 6.13435 6.40738 5.89059 6.56664 5.53574L8.50079 1.22632Z" fill="#FFC369"/>
</svg>
