<svg width="84" height="45" viewBox="0 0 84 45" fill="none" xmlns="http://www.w3.org/2000/svg">
<path d="M15.3199 35.3815L22.9788 31.3279L15.3199 26.9105L7.65918 31.3279V40.1608L15.3199 44.5781V35.3815Z" fill="#D2D3D4"/>
<path d="M22.9788 13.6804V4.84753L15.3199 8.38604L7.65918 4.84753V13.6804L15.3199 18.0978L22.9788 13.6804Z" fill="#D2D3D4"/>
<path d="M15.3196 26.918V18.0833L7.65891 13.6677L0 18.0833L7.65891 21.8731V31.3335L15.3196 26.918Z" fill="#18A7A7"/>
<path d="M22.9788 4.8469L15.3199 8.38541L7.65918 4.8469L15.3199 0.429565L22.9788 4.8469Z" fill="#18A7A7"/>
<path d="M22.9787 31.3235L15.3198 35.3772V44.5737L22.9787 40.1564V31.3235Z" fill="#18A7A7"/>
<path d="M7.65891 31.3321V21.8718L0 18.0819V26.9166L7.65891 31.3321Z" fill="#D2D3D4"/>
<path d="M27.1386 23.9265C26.8531 25.4506 25.4751 26.7787 23.4993 26.7787C21.2718 26.7787 19.2959 25.1279 19.2959 22.2918C19.2959 19.6428 21.22 17.8905 23.2976 17.8905C25.8285 17.8905 27.3154 19.5911 27.3154 22.2401C27.3207 22.4528 27.304 22.6655 27.2654 22.8747H21.2539C21.2633 23.4612 21.5048 24.02 21.9255 24.4292C22.3462 24.8384 22.9121 25.0646 23.4993 25.0584C24.6809 25.0584 25.1057 24.4363 25.3395 23.9229L27.1386 23.9265ZM25.3448 21.4183C25.3109 20.4379 24.6702 19.5608 23.319 19.5608C22.8098 19.5547 22.3177 19.744 21.9441 20.0896C21.5705 20.4352 21.3439 20.9108 21.311 21.4183H25.3448Z" fill="#18A7A7"/>
<path d="M28.1675 26.5203V24.784L32.337 19.9014H28.2514V18.1473H34.8054V19.8337L30.586 24.7662H34.8911V26.5203H28.1675Z" fill="#18A7A7"/>
<path d="M37.4163 29.9073L39.3922 25.5238L35.876 18.1473H38.0874L40.4506 23.4435L42.6674 18.1473H44.745L39.5118 29.9126L37.4163 29.9073Z" fill="#18A7A7"/>
<path d="M52.8578 17.9686C51.5852 17.9686 50.6339 18.5622 50.2269 19.2753V18.1558H48.3242V29.9211H50.2769V25.4824C50.7017 26.1099 51.6013 26.6179 52.79 26.6179C55.1674 26.6179 56.6792 24.7533 56.6792 22.2772C56.6792 19.835 55.3031 17.9686 52.8578 17.9686ZM52.4848 24.8727C51.1943 24.8727 50.2608 23.8548 50.2608 22.2772C50.2608 20.7335 51.1943 19.7156 52.4848 19.7156C53.8091 19.7156 54.7087 20.7335 54.7087 22.2772C54.7087 23.8548 53.7931 24.8727 52.4848 24.8727Z" fill="#18A7A7"/>
<path d="M61.1263 17.8983C59.088 17.8983 58.1509 18.9287 57.8118 19.9091H59.9144C59.9144 19.9091 60.1071 19.5098 61.1424 19.5098C62.2294 19.5098 62.7059 20.0695 62.7059 20.7576C62.7059 21.0464 62.5703 21.2924 62.0937 21.3513L59.9715 21.6846C58.5614 21.8878 57.4727 22.7025 57.4727 24.1803C57.4727 25.4869 58.5436 26.6759 60.2749 26.6759C61.6171 26.6759 62.431 25.9968 62.8219 25.3693V26.421H64.6318V20.8129C64.5658 19.2424 63.5805 17.8983 61.1263 17.8983ZM62.6988 22.961C62.7131 24.2088 61.5922 25.1233 60.6497 25.1233C59.8697 25.1233 59.4449 24.6152 59.4449 24.0537C59.4449 23.3745 59.9376 23.0358 60.548 22.9342L62.7059 22.6116L62.6988 22.961Z" fill="#18A7A7"/>
<path d="M75.0466 23.7362V19.9035H76.7619V18.1565H75.0466V15.6288H73.2617V16.8766C73.2617 17.6057 72.8708 18.1655 71.9891 18.1655H71.5732V19.9124H73.1029V24.0677C73.1029 25.6115 74.0542 26.526 75.5821 26.526C75.9921 26.546 76.402 26.4854 76.7887 26.3477V24.7184C76.5642 24.7596 76.3368 24.7823 76.1086 24.7861C75.3697 24.7701 75.0466 24.4652 75.0466 23.7362Z" fill="#18A7A7"/>
<path d="M81.6173 21.5153L80.3679 21.2603C79.8592 21.1587 79.5361 20.8361 79.5361 20.3958C79.5361 19.8859 80.0287 19.4617 80.7248 19.4456C81.5816 19.426 81.8422 19.615 82.1242 19.9127H83.8466C83.7109 19.098 83.0273 17.8983 80.7177 17.8983C79.0024 17.8983 77.6834 19.1194 77.6834 20.5616C77.6834 21.6971 78.4473 22.6472 79.9092 22.9699L81.13 23.2408C81.7922 23.3763 82.0992 23.7168 82.0992 24.1571C82.0992 24.6651 81.6744 25.1072 80.8587 25.1072C79.8056 25.1072 79.2523 24.8006 79.1774 24.0555L77.4639 24.0911C77.6227 25.3515 78.4812 26.667 80.8766 26.667C82.9827 26.667 84.0001 25.2766 84.0001 24.0216C83.9947 22.8041 83.1755 21.854 81.6173 21.5153Z" fill="#18A7A7"/>
<path d="M67.9007 19.4779V18.1552H65.9819V26.414H67.9453V22.4798C67.9453 20.936 68.6468 19.9021 70.1746 19.9021C70.3781 19.9021 70.7333 19.9021 70.8154 19.9021V18.1569H70.2924C69.2126 18.1569 68.2916 18.5794 67.9007 19.4779Z" fill="#18A7A7"/>
</svg>
